<svg xmlns="http://www.w3.org/2000/svg" viewBox="0 0 800 500">
  <rect width="800" height="500" fill="#0A1628"/>
  <defs>
    <linearGradient id="g1" x1="0" y1="0" x2="1" y2="1">
      <stop offset="0%" stop-color="#C8A951" stop-opacity="0.2"/>
      <stop offset="100%" stop-color="#0A1628" stop-opacity="0"/>
    </linearGradient>
  </defs>
  <rect width="800" height="500" fill="url(#g1)"/>
  <!-- Network nodes -->
  <circle cx="400" cy="100" r="24" fill="none" stroke="#C8A951" stroke-width="2" opacity="0.8"/>
  <text x="400" y="106" text-anchor="middle" fill="#C8A951" font-size="14" font-family="sans-serif" font-weight="700">S</text>
  
  <!-- Job layer -->
  <circle cx="200" cy="200" r="18" fill="none" stroke="#fff" stroke-width="1.5" opacity="0.5"/>
  <circle cx="320" cy="200" r="18" fill="none" stroke="#fff" stroke-width="1.5" opacity="0.5"/>
  <circle cx="480" cy="200" r="18" fill="none" stroke="#fff" stroke-width="1.5" opacity="0.5"/>
  <circle cx="600" cy="200" r="18" fill="none" stroke="#fff" stroke-width="1.5" opacity="0.5"/>
  
  <!-- Node layer -->
  <circle cx="150" cy="300" r="14" fill="none" stroke="#C8A951" stroke-width="1.5" opacity="0.4"/>
  <circle cx="270" cy="300" r="14" fill="none" stroke="#C8A951" stroke-width="1.5" opacity="0.4"/>
  <circle cx="390" cy="300" r="14" fill="none" stroke="#C8A951" stroke-width="1.5" opacity="0.4"/>
  <circle cx="510" cy="300" r="14" fill="none" stroke="#C8A951" stroke-width="1.5" opacity="0.4"/>
  <circle cx="630" cy="300" r="14" fill="none" stroke="#C8A951" stroke-width="1.5" opacity="0.4"/>
  
  <!-- Tenant layer -->
  <circle cx="220" cy="400" r="18" fill="none" stroke="#fff" stroke-width="1.5" opacity="0.3"/>
  <circle cx="400" cy="400" r="18" fill="none" stroke="#fff" stroke-width="1.5" opacity="0.3"/>
  <circle cx="580" cy="400" r="18" fill="none" stroke="#fff" stroke-width="1.5" opacity="0.3"/>
  
  <!-- Edges -->
  <line x1="400" y1="124" x2="200" y2="182" stroke="#C8A951" stroke-width="1" opacity="0.3"/>
  <line x1="400" y1="124" x2="320" y2="182" stroke="#C8A951" stroke-width="1" opacity="0.3"/>
  <line x1="400" y1="124" x2="480" y2="182" stroke="#C8A951" stroke-width="1" opacity="0.3"/>
  <line x1="400" y1="124" x2="600" y2="182" stroke="#C8A951" stroke-width="1" opacity="0.3"/>
  
  <line x1="200" y1="218" x2="150" y2="286" stroke="#fff" stroke-width="0.8" opacity="0.2"/>
  <line x1="200" y1="218" x2="270" y2="286" stroke="#fff" stroke-width="0.8" opacity="0.2"/>
  <line x1="320" y1="218" x2="270" y2="286" stroke="#fff" stroke-width="0.8" opacity="0.2"/>
  <line x1="320" y1="218" x2="390" y2="286" stroke="#fff" stroke-width="0.8" opacity="0.2"/>
  <line x1="480" y1="218" x2="390" y2="286" stroke="#fff" stroke-width="0.8" opacity="0.2"/>
  <line x1="480" y1="218" x2="510" y2="286" stroke="#fff" stroke-width="0.8" opacity="0.2"/>
  <line x1="600" y1="218" x2="510" y2="286" stroke="#fff" stroke-width="0.8" opacity="0.2"/>
  <line x1="600" y1="218" x2="630" y2="286" stroke="#fff" stroke-width="0.8" opacity="0.2"/>
  
  <line x1="150" y1="314" x2="220" y2="382" stroke="#C8A951" stroke-width="0.8" opacity="0.2"/>
  <line x1="270" y1="314" x2="220" y2="382" stroke="#C8A951" stroke-width="0.8" opacity="0.2"/>
  <line x1="390" y1="314" x2="400" y2="382" stroke="#C8A951" stroke-width="0.8" opacity="0.2"/>
  <line x1="510" y1="314" x2="400" y2="382" stroke="#C8A951" stroke-width="0.8" opacity="0.2"/>
  <line x1="630" y1="314" x2="580" y2="382" stroke="#C8A951" stroke-width="0.8" opacity="0.2"/>
  
  <!-- Labels -->
  <text x="400" y="470" text-anchor="middle" fill="rgba(255,255,255,0.3)" font-size="13" font-family="sans-serif" letter-spacing="0.15em">MINIMUM COST FLOW — NETWORK SCHEDULING</text>
</svg>
